<mxfile host="Electron" modified="2023-11-07T14:17:41.123Z" agent="Mozilla/5.0 (Windows NT 10.0; Win64; x64) AppleWebKit/537.36 (KHTML, like Gecko) draw.io/22.0.3 Chrome/114.0.5735.289 Electron/25.8.4 Safari/537.36" etag="cQI0qyzJMuRsHEhCeJKz" version="22.0.3" type="device">
  <diagram id="aup2Fgcph3yYs3ryoIUO" name="Page-1">
    <mxGraphModel dx="248" dy="820" grid="1" gridSize="5" guides="1" tooltips="1" connect="1" arrows="1" fold="1" page="1" pageScale="1" pageWidth="850" pageHeight="1100" math="0" shadow="0">
      <root>
        <mxCell id="0" />
        <mxCell id="1" parent="0" />
        <mxCell id="f-73ZPh84XC3wI3hWz3D-59" style="edgeStyle=orthogonalEdgeStyle;rounded=0;orthogonalLoop=1;jettySize=auto;html=1;entryX=0.5;entryY=0;entryDx=0;entryDy=0;entryPerimeter=0;endArrow=classic;endFill=1;fontFamily=Times New Roman;" parent="1" source="f-73ZPh84XC3wI3hWz3D-1" target="f-73ZPh84XC3wI3hWz3D-2" edge="1">
          <mxGeometry relative="1" as="geometry" />
        </mxCell>
        <mxCell id="f-73ZPh84XC3wI3hWz3D-1" value="Start" style="strokeWidth=2;html=1;shape=mxgraph.flowchart.start_1;whiteSpace=wrap;fontFamily=Times New Roman;fillColor=none;fontSize=17;" parent="1" vertex="1">
          <mxGeometry x="970" y="10" width="100" height="60" as="geometry" />
        </mxCell>
        <mxCell id="f-73ZPh84XC3wI3hWz3D-77" style="edgeStyle=orthogonalEdgeStyle;rounded=0;orthogonalLoop=1;jettySize=auto;html=1;exitX=1;exitY=0.5;exitDx=0;exitDy=0;exitPerimeter=0;entryX=0;entryY=0.5;entryDx=0;entryDy=0;entryPerimeter=0;endArrow=classic;endFill=1;fontFamily=Times New Roman;" parent="1" source="f-73ZPh84XC3wI3hWz3D-2" target="f-73ZPh84XC3wI3hWz3D-7" edge="1">
          <mxGeometry relative="1" as="geometry" />
        </mxCell>
        <mxCell id="ikmwplsOomX2xDfb86JA-11" style="edgeStyle=orthogonalEdgeStyle;rounded=0;orthogonalLoop=1;jettySize=auto;html=1;exitX=0;exitY=0.5;exitDx=0;exitDy=0;exitPerimeter=0;entryX=0.5;entryY=0;entryDx=0;entryDy=0;endArrow=classic;endFill=1;" parent="1" source="f-73ZPh84XC3wI3hWz3D-2" target="ikmwplsOomX2xDfb86JA-6" edge="1">
          <mxGeometry relative="1" as="geometry" />
        </mxCell>
        <mxCell id="f-73ZPh84XC3wI3hWz3D-2" value="Track user activities?&amp;nbsp;" style="strokeWidth=2;html=1;shape=mxgraph.flowchart.decision;whiteSpace=wrap;fontFamily=Times New Roman;fillColor=none;fontSize=17;" parent="1" vertex="1">
          <mxGeometry x="945" y="90" width="150" height="150" as="geometry" />
        </mxCell>
        <mxCell id="f-73ZPh84XC3wI3hWz3D-76" style="edgeStyle=orthogonalEdgeStyle;rounded=0;orthogonalLoop=1;jettySize=auto;html=1;entryX=0;entryY=0.5;entryDx=0;entryDy=0;entryPerimeter=0;endArrow=classic;endFill=1;fontFamily=Times New Roman;" parent="1" source="f-73ZPh84XC3wI3hWz3D-3" target="f-73ZPh84XC3wI3hWz3D-26" edge="1">
          <mxGeometry relative="1" as="geometry">
            <Array as="points">
              <mxPoint x="1020" y="415" />
            </Array>
          </mxGeometry>
        </mxCell>
        <mxCell id="f-73ZPh84XC3wI3hWz3D-3" value="Set &lt;b&gt;ElementInfo &lt;/b&gt;object to null." style="rounded=1;whiteSpace=wrap;html=1;absoluteArcSize=1;arcSize=14;strokeWidth=2;fontFamily=Times New Roman;fillColor=none;fontSize=17;" parent="1" vertex="1">
          <mxGeometry x="940" y="280" width="160" height="90" as="geometry" />
        </mxCell>
        <mxCell id="f-73ZPh84XC3wI3hWz3D-4" value="End" style="strokeWidth=2;html=1;shape=mxgraph.flowchart.terminator;whiteSpace=wrap;fillColor=none;fontFamily=Times New Roman;fontSize=17;" parent="1" vertex="1">
          <mxGeometry x="1209.75" y="1205" width="100" height="60" as="geometry" />
        </mxCell>
        <mxCell id="f-73ZPh84XC3wI3hWz3D-5" value="Yes" style="text;html=1;strokeColor=none;fillColor=none;align=center;verticalAlign=middle;whiteSpace=wrap;rounded=0;fontFamily=Times New Roman;rotation=0;fontSize=17;" parent="1" vertex="1">
          <mxGeometry x="1122.5" y="144.02941176470597" width="40" height="21" as="geometry" />
        </mxCell>
        <mxCell id="ikmwplsOomX2xDfb86JA-3" style="edgeStyle=orthogonalEdgeStyle;rounded=0;orthogonalLoop=1;jettySize=auto;html=1;exitX=1;exitY=0.5;exitDx=0;exitDy=0;exitPerimeter=0;entryX=0;entryY=0.5;entryDx=0;entryDy=0;entryPerimeter=0;" parent="1" source="f-73ZPh84XC3wI3hWz3D-7" target="f-73ZPh84XC3wI3hWz3D-9" edge="1">
          <mxGeometry relative="1" as="geometry" />
        </mxCell>
        <mxCell id="ikmwplsOomX2xDfb86JA-9" style="edgeStyle=orthogonalEdgeStyle;rounded=0;orthogonalLoop=1;jettySize=auto;html=1;exitX=0.5;exitY=1;exitDx=0;exitDy=0;exitPerimeter=0;entryX=1;entryY=0.5;entryDx=0;entryDy=0;endArrow=classic;endFill=1;" parent="1" source="f-73ZPh84XC3wI3hWz3D-7" target="ikmwplsOomX2xDfb86JA-6" edge="1">
          <mxGeometry relative="1" as="geometry" />
        </mxCell>
        <mxCell id="f-73ZPh84XC3wI3hWz3D-7" value="HttpMethod&lt;br&gt;&amp;nbsp;null or empty?" style="strokeWidth=2;html=1;shape=mxgraph.flowchart.decision;whiteSpace=wrap;fontFamily=Times New Roman;fillColor=none;fontSize=17;" parent="1" vertex="1">
          <mxGeometry x="1189.5" y="90" width="150" height="150" as="geometry" />
        </mxCell>
        <mxCell id="ikmwplsOomX2xDfb86JA-17" style="edgeStyle=orthogonalEdgeStyle;rounded=0;orthogonalLoop=1;jettySize=auto;html=1;exitX=0;exitY=0.5;exitDx=0;exitDy=0;entryX=0.5;entryY=0;entryDx=0;entryDy=0;entryPerimeter=0;endArrow=classic;endFill=1;" parent="1" source="f-73ZPh84XC3wI3hWz3D-8" target="f-73ZPh84XC3wI3hWz3D-26" edge="1">
          <mxGeometry relative="1" as="geometry" />
        </mxCell>
        <mxCell id="f-73ZPh84XC3wI3hWz3D-8" value="Deserialise JSON user activity string into an &lt;b&gt;ElementInfo &lt;/b&gt;object." style="rounded=1;whiteSpace=wrap;html=1;absoluteArcSize=1;arcSize=14;strokeWidth=2;fontFamily=Times New Roman;fillColor=none;fontSize=17;" parent="1" vertex="1">
          <mxGeometry x="1530" y="261" width="160" height="90" as="geometry" />
        </mxCell>
        <mxCell id="ikmwplsOomX2xDfb86JA-13" style="edgeStyle=orthogonalEdgeStyle;rounded=0;orthogonalLoop=1;jettySize=auto;html=1;exitX=0.5;exitY=1;exitDx=0;exitDy=0;exitPerimeter=0;entryX=1;entryY=0.5;entryDx=0;entryDy=0;endArrow=classic;endFill=1;" parent="1" source="f-73ZPh84XC3wI3hWz3D-9" target="f-73ZPh84XC3wI3hWz3D-3" edge="1">
          <mxGeometry relative="1" as="geometry">
            <Array as="points">
              <mxPoint x="1508" y="280" />
              <mxPoint x="1180" y="280" />
              <mxPoint x="1180" y="325" />
            </Array>
          </mxGeometry>
        </mxCell>
        <mxCell id="ikmwplsOomX2xDfb86JA-14" style="edgeStyle=orthogonalEdgeStyle;rounded=0;orthogonalLoop=1;jettySize=auto;html=1;exitX=1;exitY=0.5;exitDx=0;exitDy=0;exitPerimeter=0;entryX=0.5;entryY=0;entryDx=0;entryDy=0;endArrow=classic;endFill=1;" parent="1" source="f-73ZPh84XC3wI3hWz3D-9" target="f-73ZPh84XC3wI3hWz3D-8" edge="1">
          <mxGeometry relative="1" as="geometry" />
        </mxCell>
        <mxCell id="f-73ZPh84XC3wI3hWz3D-9" value="&lt;font style=&quot;font-size: 17px&quot;&gt;Contains user &lt;br&gt;activity &lt;br&gt;parameters?&lt;/font&gt;" style="strokeWidth=2;html=1;shape=mxgraph.flowchart.decision;whiteSpace=wrap;fontFamily=Times New Roman;fillColor=none;fontSize=17;" parent="1" vertex="1">
          <mxGeometry x="1432.5" y="90" width="150" height="150" as="geometry" />
        </mxCell>
        <mxCell id="f-73ZPh84XC3wI3hWz3D-6" value="No" style="text;html=1;strokeColor=none;fillColor=none;align=center;verticalAlign=middle;whiteSpace=wrap;rounded=0;fontFamily=Times New Roman;rotation=0;fontSize=17;" parent="1" vertex="1">
          <mxGeometry x="900" y="140" width="40" height="20" as="geometry" />
        </mxCell>
        <mxCell id="f-73ZPh84XC3wI3hWz3D-18" value="Yes" style="text;html=1;strokeColor=none;fillColor=none;align=center;verticalAlign=middle;whiteSpace=wrap;rounded=0;fontFamily=Times New Roman;rotation=90;fontSize=17;" parent="1" vertex="1">
          <mxGeometry x="1600" y="209.999411764706" width="40" height="21" as="geometry" />
        </mxCell>
        <mxCell id="f-73ZPh84XC3wI3hWz3D-21" value="Yes" style="text;html=1;strokeColor=none;fillColor=none;align=center;verticalAlign=middle;whiteSpace=wrap;rounded=0;fontFamily=Times New Roman;rotation=0;fontSize=17;" parent="1" vertex="1">
          <mxGeometry x="1050" y="244.999411764706" width="40" height="21" as="geometry" />
        </mxCell>
        <mxCell id="f-73ZPh84XC3wI3hWz3D-67" style="edgeStyle=orthogonalEdgeStyle;rounded=0;orthogonalLoop=1;jettySize=auto;html=1;exitX=0;exitY=0.5;exitDx=0;exitDy=0;exitPerimeter=0;entryX=1;entryY=0.5;entryDx=0;entryDy=0;endArrow=classic;endFill=1;fontFamily=Times New Roman;" parent="1" source="f-73ZPh84XC3wI3hWz3D-25" target="f-73ZPh84XC3wI3hWz3D-35" edge="1">
          <mxGeometry relative="1" as="geometry" />
        </mxCell>
        <mxCell id="ikmwplsOomX2xDfb86JA-36" style="edgeStyle=orthogonalEdgeStyle;rounded=0;orthogonalLoop=1;jettySize=auto;html=1;exitX=1;exitY=0.5;exitDx=0;exitDy=0;exitPerimeter=0;entryX=0;entryY=0.5;entryDx=0;entryDy=0;endArrow=classic;endFill=1;" parent="1" source="f-73ZPh84XC3wI3hWz3D-25" target="f-73ZPh84XC3wI3hWz3D-38" edge="1">
          <mxGeometry relative="1" as="geometry" />
        </mxCell>
        <mxCell id="f-73ZPh84XC3wI3hWz3D-25" value="&lt;b style=&quot;font-size: 16px;&quot;&gt;&lt;font style=&quot;font-size: 16px;&quot;&gt;ElementInfo&#39;s&lt;/font&gt;&amp;nbsp; &lt;/b&gt;element datakey&lt;b&gt;&amp;nbsp;&lt;/b&gt;is null or empty?" style="strokeWidth=2;html=1;shape=mxgraph.flowchart.decision;whiteSpace=wrap;fontFamily=Times New Roman;fillColor=none;fontSize=17;" parent="1" vertex="1">
          <mxGeometry x="1184.75" y="525" width="150" height="150" as="geometry" />
        </mxCell>
        <mxCell id="f-73ZPh84XC3wI3hWz3D-73" style="edgeStyle=orthogonalEdgeStyle;rounded=0;orthogonalLoop=1;jettySize=auto;html=1;exitX=1;exitY=0.5;exitDx=0;exitDy=0;exitPerimeter=0;entryX=0;entryY=0.5;entryDx=0;entryDy=0;endArrow=classic;endFill=1;fontFamily=Times New Roman;" parent="1" source="f-73ZPh84XC3wI3hWz3D-26" target="f-73ZPh84XC3wI3hWz3D-27" edge="1">
          <mxGeometry relative="1" as="geometry" />
        </mxCell>
        <mxCell id="ikmwplsOomX2xDfb86JA-15" style="edgeStyle=orthogonalEdgeStyle;rounded=0;orthogonalLoop=1;jettySize=auto;html=1;exitX=0.5;exitY=1;exitDx=0;exitDy=0;exitPerimeter=0;entryX=0.5;entryY=0;entryDx=0;entryDy=0;entryPerimeter=0;endArrow=classic;endFill=1;" parent="1" source="f-73ZPh84XC3wI3hWz3D-26" target="f-73ZPh84XC3wI3hWz3D-25" edge="1">
          <mxGeometry relative="1" as="geometry" />
        </mxCell>
        <mxCell id="f-73ZPh84XC3wI3hWz3D-26" value="Request header contains &quot;Index&quot;?" style="strokeWidth=2;html=1;shape=mxgraph.flowchart.decision;whiteSpace=wrap;fontFamily=Times New Roman;fillColor=none;fontSize=17;" parent="1" vertex="1">
          <mxGeometry x="1184.5" y="340" width="150" height="150" as="geometry" />
        </mxCell>
        <mxCell id="ikmwplsOomX2xDfb86JA-40" style="edgeStyle=orthogonalEdgeStyle;rounded=0;orthogonalLoop=1;jettySize=auto;html=1;exitX=1;exitY=0.5;exitDx=0;exitDy=0;entryX=1;entryY=0.5;entryDx=0;entryDy=0;endArrow=classic;endFill=1;" parent="1" source="f-73ZPh84XC3wI3hWz3D-27" target="ikmwplsOomX2xDfb86JA-27" edge="1">
          <mxGeometry relative="1" as="geometry">
            <Array as="points">
              <mxPoint x="1625" y="415" />
              <mxPoint x="1625" y="755" />
            </Array>
          </mxGeometry>
        </mxCell>
        <mxCell id="f-73ZPh84XC3wI3hWz3D-27" value="Set &lt;b&gt;ActitvityType &lt;/b&gt;to MenuAccessed." style="rounded=1;whiteSpace=wrap;html=1;absoluteArcSize=1;arcSize=14;strokeWidth=2;fontFamily=Times New Roman;fillColor=none;fontSize=17;" parent="1" vertex="1">
          <mxGeometry x="1422.5" y="370" width="160" height="90" as="geometry" />
        </mxCell>
        <mxCell id="f-73ZPh84XC3wI3hWz3D-33" value="Yes" style="text;html=1;strokeColor=none;fillColor=none;align=center;verticalAlign=middle;whiteSpace=wrap;rounded=0;fontFamily=Times New Roman;rotation=0;fontSize=17;" parent="1" vertex="1">
          <mxGeometry x="1355" y="394.9994117647059" width="40" height="21" as="geometry" />
        </mxCell>
        <mxCell id="f-73ZPh84XC3wI3hWz3D-69" style="edgeStyle=orthogonalEdgeStyle;rounded=0;orthogonalLoop=1;jettySize=auto;html=1;exitX=0.5;exitY=1;exitDx=0;exitDy=0;entryX=0.5;entryY=0;entryDx=0;entryDy=0;endArrow=classic;endFill=1;fontFamily=Times New Roman;" parent="1" source="f-73ZPh84XC3wI3hWz3D-35" target="f-73ZPh84XC3wI3hWz3D-37" edge="1">
          <mxGeometry relative="1" as="geometry" />
        </mxCell>
        <mxCell id="f-73ZPh84XC3wI3hWz3D-35" value="Set &lt;b&gt;ActitvityType &lt;/b&gt;to CustomControls." style="rounded=1;whiteSpace=wrap;html=1;absoluteArcSize=1;arcSize=14;strokeWidth=2;fontFamily=Times New Roman;fillColor=none;fontSize=17;" parent="1" vertex="1">
          <mxGeometry x="946.75" y="555" width="160" height="90" as="geometry" />
        </mxCell>
        <mxCell id="ikmwplsOomX2xDfb86JA-34" style="edgeStyle=orthogonalEdgeStyle;rounded=0;orthogonalLoop=1;jettySize=auto;html=1;exitX=1;exitY=0.5;exitDx=0;exitDy=0;entryX=0;entryY=0.5;entryDx=0;entryDy=0;endArrow=classic;endFill=1;" parent="1" source="f-73ZPh84XC3wI3hWz3D-37" target="f-73ZPh84XC3wI3hWz3D-43" edge="1">
          <mxGeometry relative="1" as="geometry" />
        </mxCell>
        <mxCell id="f-73ZPh84XC3wI3hWz3D-37" value="Set &lt;b&gt;ElementInfo&#39;s &lt;/b&gt;element ID&amp;nbsp;to custom control element." style="rounded=1;whiteSpace=wrap;html=1;absoluteArcSize=1;arcSize=14;strokeWidth=2;fontFamily=Times New Roman;fillColor=none;fontSize=17;" parent="1" vertex="1">
          <mxGeometry x="946.75" y="710" width="160" height="90" as="geometry" />
        </mxCell>
        <mxCell id="ikmwplsOomX2xDfb86JA-30" style="edgeStyle=orthogonalEdgeStyle;rounded=0;orthogonalLoop=1;jettySize=auto;html=1;exitX=0.5;exitY=1;exitDx=0;exitDy=0;entryX=0.5;entryY=0;entryDx=0;entryDy=0;endArrow=classic;endFill=1;" parent="1" source="f-73ZPh84XC3wI3hWz3D-38" target="ikmwplsOomX2xDfb86JA-27" edge="1">
          <mxGeometry relative="1" as="geometry" />
        </mxCell>
        <mxCell id="f-73ZPh84XC3wI3hWz3D-38" value="Set&amp;nbsp;&lt;b&gt;ActitvityType&amp;nbsp;&lt;/b&gt;to element defined activity type." style="rounded=1;whiteSpace=wrap;html=1;absoluteArcSize=1;arcSize=14;strokeWidth=2;fontFamily=Times New Roman;fillColor=none;fontSize=17;" parent="1" vertex="1">
          <mxGeometry x="1390.5" y="555" width="160" height="90" as="geometry" />
        </mxCell>
        <mxCell id="ikmwplsOomX2xDfb86JA-42" style="edgeStyle=orthogonalEdgeStyle;rounded=0;orthogonalLoop=1;jettySize=auto;html=1;exitX=0.5;exitY=1;exitDx=0;exitDy=0;entryX=0.5;entryY=0;entryDx=0;entryDy=0;endArrow=classic;endFill=1;" parent="1" source="f-73ZPh84XC3wI3hWz3D-43" target="f-73ZPh84XC3wI3hWz3D-48" edge="1">
          <mxGeometry relative="1" as="geometry" />
        </mxCell>
        <mxCell id="f-73ZPh84XC3wI3hWz3D-43" value="Get the request absolute path." style="rounded=1;whiteSpace=wrap;html=1;absoluteArcSize=1;arcSize=14;strokeWidth=2;fontFamily=Times New Roman;fillColor=none;fontSize=17;" parent="1" vertex="1">
          <mxGeometry x="1189.5" y="710" width="160" height="90" as="geometry" />
        </mxCell>
        <mxCell id="ikmwplsOomX2xDfb86JA-45" style="edgeStyle=orthogonalEdgeStyle;rounded=0;orthogonalLoop=1;jettySize=auto;html=1;exitX=0.5;exitY=1;exitDx=0;exitDy=0;entryX=0.534;entryY=-0.039;entryDx=0;entryDy=0;entryPerimeter=0;fontSize=16;endArrow=classic;endFill=1;" parent="1" source="f-73ZPh84XC3wI3hWz3D-48" target="BEyyhxYzQ2ngOe6aUZ8f-1" edge="1">
          <mxGeometry relative="1" as="geometry" />
        </mxCell>
        <mxCell id="f-73ZPh84XC3wI3hWz3D-48" value="Get selected group ID" style="rounded=1;whiteSpace=wrap;html=1;absoluteArcSize=1;arcSize=14;strokeWidth=2;fontFamily=Times New Roman;fillColor=none;fontSize=17;" parent="1" vertex="1">
          <mxGeometry x="1189.5" y="835" width="160" height="90" as="geometry" />
        </mxCell>
        <mxCell id="ikmwplsOomX2xDfb86JA-46" style="edgeStyle=orthogonalEdgeStyle;rounded=0;orthogonalLoop=1;jettySize=auto;html=1;exitX=0.5;exitY=1;exitDx=0;exitDy=0;entryX=0.5;entryY=0;entryDx=0;entryDy=0;entryPerimeter=0;fontSize=16;endArrow=classic;endFill=1;" parent="1" source="f-73ZPh84XC3wI3hWz3D-49" target="f-73ZPh84XC3wI3hWz3D-4" edge="1">
          <mxGeometry relative="1" as="geometry" />
        </mxCell>
        <mxCell id="f-73ZPh84XC3wI3hWz3D-49" value="Parse the data to the &lt;b&gt;ActivityLogger&lt;/b&gt;." style="rounded=1;whiteSpace=wrap;html=1;absoluteArcSize=1;arcSize=14;strokeWidth=2;fontFamily=Times New Roman;fillColor=none;fontSize=17;" parent="1" vertex="1">
          <mxGeometry x="1184.75" y="1085" width="160" height="90" as="geometry" />
        </mxCell>
        <mxCell id="f-73ZPh84XC3wI3hWz3D-55" value="No" style="text;html=1;strokeColor=none;fillColor=none;align=center;verticalAlign=middle;whiteSpace=wrap;rounded=0;fontFamily=Times New Roman;rotation=0;fontSize=17;" parent="1" vertex="1">
          <mxGeometry x="1339.5" y="580" width="40" height="20" as="geometry" />
        </mxCell>
        <mxCell id="f-73ZPh84XC3wI3hWz3D-63" value="No" style="text;html=1;strokeColor=none;fillColor=none;align=center;verticalAlign=middle;whiteSpace=wrap;rounded=0;fontFamily=Times New Roman;rotation=0;fontSize=17;" parent="1" vertex="1">
          <mxGeometry x="1360" y="145.03" width="40" height="20" as="geometry" />
        </mxCell>
        <mxCell id="f-73ZPh84XC3wI3hWz3D-65" value="No" style="text;html=1;strokeColor=none;fillColor=none;align=center;verticalAlign=middle;whiteSpace=wrap;rounded=0;fontFamily=Times New Roman;rotation=0;fontSize=17;" parent="1" vertex="1">
          <mxGeometry x="1344.5" y="261" width="40" height="20" as="geometry" />
        </mxCell>
        <mxCell id="f-73ZPh84XC3wI3hWz3D-66" value="Yes" style="text;html=1;strokeColor=none;fillColor=none;align=center;verticalAlign=middle;whiteSpace=wrap;rounded=0;fontFamily=Times New Roman;rotation=0;fontSize=17;" parent="1" vertex="1">
          <mxGeometry x="1130" y="578.9994117647059" width="40" height="21" as="geometry" />
        </mxCell>
        <mxCell id="ikmwplsOomX2xDfb86JA-43" style="edgeStyle=orthogonalEdgeStyle;rounded=0;orthogonalLoop=1;jettySize=auto;html=1;exitX=0.5;exitY=1;exitDx=0;exitDy=0;entryX=0.5;entryY=0;entryDx=0;entryDy=0;endArrow=classic;endFill=1;" parent="1" source="BEyyhxYzQ2ngOe6aUZ8f-1" target="f-73ZPh84XC3wI3hWz3D-49" edge="1">
          <mxGeometry relative="1" as="geometry" />
        </mxCell>
        <mxCell id="BEyyhxYzQ2ngOe6aUZ8f-1" value="Get other available meta data." style="rounded=1;whiteSpace=wrap;html=1;absoluteArcSize=1;arcSize=14;strokeWidth=2;fontFamily=Times New Roman;fillColor=none;fontSize=17;" parent="1" vertex="1">
          <mxGeometry x="1184.5" y="960" width="160" height="90" as="geometry" />
        </mxCell>
        <mxCell id="ikmwplsOomX2xDfb86JA-12" style="edgeStyle=orthogonalEdgeStyle;rounded=0;orthogonalLoop=1;jettySize=auto;html=1;exitX=0.5;exitY=1;exitDx=0;exitDy=0;entryX=0;entryY=0.5;entryDx=0;entryDy=0;entryPerimeter=0;endArrow=classic;endFill=1;" parent="1" source="ikmwplsOomX2xDfb86JA-6" target="f-73ZPh84XC3wI3hWz3D-4" edge="1">
          <mxGeometry relative="1" as="geometry" />
        </mxCell>
        <mxCell id="ikmwplsOomX2xDfb86JA-6" value="" style="ellipse;whiteSpace=wrap;html=1;aspect=fixed;strokeWidth=2;fontFamily=Times New Roman;fontSize=17;fillColor=#000000;" parent="1" vertex="1">
          <mxGeometry x="870" y="261" width="10" height="10" as="geometry" />
        </mxCell>
        <mxCell id="ikmwplsOomX2xDfb86JA-39" style="edgeStyle=orthogonalEdgeStyle;rounded=0;orthogonalLoop=1;jettySize=auto;html=1;exitX=0;exitY=0.5;exitDx=0;exitDy=0;entryX=1;entryY=0.5;entryDx=0;entryDy=0;endArrow=classic;endFill=1;" parent="1" source="ikmwplsOomX2xDfb86JA-27" target="f-73ZPh84XC3wI3hWz3D-43" edge="1">
          <mxGeometry relative="1" as="geometry" />
        </mxCell>
        <mxCell id="ikmwplsOomX2xDfb86JA-27" value="" style="ellipse;whiteSpace=wrap;html=1;aspect=fixed;strokeWidth=2;fontFamily=Times New Roman;fontSize=17;fillColor=#000000;" parent="1" vertex="1">
          <mxGeometry x="1465.5" y="750" width="10" height="10" as="geometry" />
        </mxCell>
      </root>
    </mxGraphModel>
  </diagram>
</mxfile>
